<svg xmlns="http://www.w3.org/2000/svg" xmlns:xlink="http://www.w3.org/1999/xlink" width="1024" zoomAndPan="magnify" viewBox="0 0 768 767.999994" height="1024" preserveAspectRatio="xMidYMid meet" version="1.0"><defs><g/><clipPath id="1767986dbb"><path d="M 0.878906 0.398438 L 524 0.398438 L 524 191.679688 L 0.878906 191.679688 Z M 0.878906 0.398438 " clip-rule="nonzero"/></clipPath><clipPath id="d3af51947c"><rect x="0" width="524" y="0" height="192"/></clipPath><clipPath id="04d236c0cf"><path d="M 492 0.398438 L 657.039062 0.398438 L 657.039062 191.679688 L 492 191.679688 Z M 492 0.398438 " clip-rule="nonzero"/></clipPath><clipPath id="9842184b8e"><rect x="0" width="166" y="0" height="192"/></clipPath><clipPath id="3e2807c7c5"><rect x="0" width="658" y="0" height="192"/></clipPath></defs><rect x="-76.8" width="921.6" fill="#ffffff" y="-76.799999" height="921.599993" fill-opacity="1"/><rect x="-76.8" width="921.6" fill="#000000" y="-76.799999" height="921.599993" fill-opacity="1"/><g transform="matrix(1, 0, 0, 1, 56, 302)"><g clip-path="url(#3e2807c7c5)"><g clip-path="url(#1767986dbb)"><g transform="matrix(1, 0, 0, 1, 0, -0.000000000000056843)"><g clip-path="url(#d3af51947c)"><g fill="#ffffff" fill-opacity="1"><g transform="translate(1.390813, 133.668508)"><g><path d="M 110.78125 -66.53125 C 119.3125 -65.425781 126.160156 -63.644531 131.328125 -61.1875 C 136.492188 -58.726562 140.429688 -55.941406 143.140625 -52.828125 C 145.847656 -49.722656 147.703125 -46.5625 148.703125 -43.34375 C 149.710938 -40.132812 150.21875 -37.175781 150.21875 -34.46875 C 150.21875 -27.238281 147.507812 -20.96875 142.09375 -15.65625 C 139.082031 -12.738281 135.492188 -10.328125 131.328125 -8.421875 C 127.160156 -6.515625 122.789062 -4.984375 118.21875 -3.828125 C 113.65625 -2.679688 109.191406 -1.832031 104.828125 -1.28125 C 100.460938 -0.726562 96.550781 -0.375 93.09375 -0.21875 C 89.632812 -0.0703125 87 0 85.1875 0 C 84.789062 0 84.414062 0 84.0625 0 C 83.707031 0 83.429688 0 83.234375 0 L 9.03125 0 L 9.03125 -105.203125 L 55.84375 -105.203125 C 59.550781 -105.203125 63.863281 -105.101562 68.78125 -104.90625 C 73.695312 -104.707031 78.710938 -104.207031 83.828125 -103.40625 C 88.953125 -102.601562 93.695312 -101.222656 98.0625 -99.265625 C 102.425781 -97.304688 105.960938 -94.546875 108.671875 -90.984375 C 111.378906 -87.421875 112.734375 -82.878906 112.734375 -77.359375 C 112.734375 -73.242188 112.082031 -69.632812 110.78125 -66.53125 Z M 28.453125 -85.796875 L 28.453125 -67.578125 L 51.921875 -67.578125 C 60.253906 -67.578125 67.03125 -67.753906 72.25 -68.109375 C 77.46875 -68.460938 81.53125 -68.960938 84.4375 -69.609375 C 87.34375 -70.265625 89.421875 -70.992188 90.671875 -71.796875 C 91.929688 -72.597656 92.6875 -73.472656 92.9375 -74.421875 C 93.1875 -75.378906 93.3125 -76.359375 93.3125 -77.359375 C 93.3125 -78.671875 92.332031 -79.976562 90.375 -81.28125 C 88.425781 -82.582031 84.765625 -83.660156 79.390625 -84.515625 C 74.023438 -85.367188 66.175781 -85.796875 55.84375 -85.796875 Z M 127.03125 -29.5 C 128.039062 -30.5 128.671875 -31.398438 128.921875 -32.203125 C 129.171875 -33.015625 129.296875 -33.769531 129.296875 -34.46875 C 129.296875 -37.78125 127.5625 -40.4375 124.09375 -42.4375 C 120.632812 -44.445312 116.144531 -45.90625 110.625 -46.8125 C 105.101562 -47.71875 99.332031 -48.171875 93.3125 -48.171875 L 28.453125 -48.171875 L 28.453125 -19.421875 L 83.390625 -19.421875 C 86.703125 -19.316406 90.460938 -19.414062 94.671875 -19.71875 C 98.890625 -20.019531 103.078125 -20.570312 107.234375 -21.375 C 111.398438 -22.175781 115.238281 -23.253906 118.75 -24.609375 C 122.269531 -25.960938 125.03125 -27.59375 127.03125 -29.5 Z M 127.03125 -29.5 "/></g></g></g><g fill="#ffffff" fill-opacity="1"><g transform="translate(160.637926, 133.668508)"><g><path d="M 28.453125 0 L 9.03125 0 L 9.03125 -105.359375 L 28.453125 -105.359375 Z M 28.453125 0 "/></g></g></g><g fill="#ffffff" fill-opacity="1"><g transform="translate(198.116697, 133.668508)"><g><path d="M 95.875 -62.609375 C 99.894531 -62.609375 104.410156 -62.484375 109.421875 -62.234375 C 114.441406 -61.984375 119.507812 -61.378906 124.625 -60.421875 C 129.738281 -59.472656 134.453125 -57.894531 138.765625 -55.6875 C 143.085938 -53.476562 146.550781 -50.414062 149.15625 -46.5 C 151.769531 -42.59375 153.078125 -37.578125 153.078125 -31.453125 C 153.078125 -26.234375 151.972656 -21.816406 149.765625 -18.203125 C 147.554688 -14.597656 144.566406 -11.640625 140.796875 -9.328125 C 137.035156 -7.023438 132.875 -5.21875 128.3125 -3.90625 C 123.75 -2.601562 119.054688 -1.675781 114.234375 -1.125 C 109.421875 -0.570312 104.832031 -0.242188 100.46875 -0.140625 C 96.101562 -0.046875 92.316406 0 89.109375 0 C 79.867188 0 71.835938 -0.25 65.015625 -0.75 C 58.191406 -1.25 52.222656 -2.023438 47.109375 -3.078125 C 41.992188 -4.140625 37.378906 -5.570312 33.265625 -7.375 C 26.441406 -10.1875 21.019531 -13.5 17 -17.3125 C 12.988281 -21.125 10.632812 -26.59375 9.9375 -33.71875 L 29.5 -33.71875 C 29.800781 -32.3125 30.703125 -30.976562 32.203125 -29.71875 C 33.710938 -28.46875 36.625 -26.941406 40.9375 -25.140625 C 45.757812 -23.023438 51.929688 -21.515625 59.453125 -20.609375 C 66.984375 -19.710938 76.867188 -19.265625 89.109375 -19.265625 C 98.335938 -19.265625 105.859375 -19.640625 111.671875 -20.390625 C 117.492188 -21.148438 122.007812 -22.128906 125.21875 -23.328125 C 128.4375 -24.535156 130.644531 -25.835938 131.84375 -27.234375 C 133.050781 -28.640625 133.65625 -30.046875 133.65625 -31.453125 C 133.65625 -36.273438 130.34375 -39.410156 123.71875 -40.859375 C 117.101562 -42.316406 107.773438 -43.097656 95.734375 -43.203125 C 94.523438 -43.203125 93.367188 -43.203125 92.265625 -43.203125 C 91.160156 -43.203125 90.109375 -43.25 89.109375 -43.34375 C 87.804688 -43.34375 86.375 -43.34375 84.8125 -43.34375 C 83.257812 -43.34375 81.628906 -43.34375 79.921875 -43.34375 C 71.085938 -43.25 62.609375 -43.425781 54.484375 -43.875 C 46.359375 -44.320312 38.984375 -45.472656 32.359375 -47.328125 C 25.734375 -49.191406 20.363281 -52.179688 16.25 -56.296875 C 11.4375 -61.003906 9.03125 -66.773438 9.03125 -73.609375 C 9.03125 -80.828125 11.113281 -86.566406 15.28125 -90.828125 C 19.445312 -95.097656 25.164062 -98.234375 32.4375 -100.234375 C 39.707031 -102.242188 48.132812 -103.550781 57.71875 -104.15625 C 67.300781 -104.757812 77.515625 -105.0625 88.359375 -105.0625 C 117.359375 -105.0625 136.671875 -99.289062 146.296875 -87.75 C 148.609375 -84.9375 150.140625 -82.203125 150.890625 -79.546875 C 151.640625 -76.890625 152.066406 -74.65625 152.171875 -72.84375 L 132.609375 -72.84375 C 132.503906 -73.144531 132.328125 -73.570312 132.078125 -74.125 C 131.828125 -74.675781 131.398438 -75.304688 130.796875 -76.015625 C 129.796875 -76.910156 127.890625 -78.132812 125.078125 -79.6875 C 122.265625 -81.25 117.921875 -82.628906 112.046875 -83.828125 C 106.179688 -85.035156 98.285156 -85.640625 88.359375 -85.640625 C 76.316406 -85.640625 66.53125 -85.363281 59 -84.8125 C 51.476562 -84.257812 45.609375 -83.503906 41.390625 -82.546875 C 37.171875 -81.597656 34.132812 -80.570312 32.28125 -79.46875 C 30.425781 -78.363281 29.320312 -77.285156 28.96875 -76.234375 C 28.625 -75.179688 28.453125 -74.304688 28.453125 -73.609375 C 28.453125 -72.203125 28.898438 -70.992188 29.796875 -69.984375 C 31.804688 -68.078125 34.867188 -66.625 38.984375 -65.625 C 43.097656 -64.625 47.640625 -63.894531 52.609375 -63.4375 C 57.578125 -62.988281 62.492188 -62.738281 67.359375 -62.6875 C 72.222656 -62.632812 76.359375 -62.609375 79.765625 -62.609375 C 81.679688 -62.710938 83.460938 -62.765625 85.109375 -62.765625 C 86.765625 -62.765625 88.25 -62.710938 89.5625 -62.609375 C 90.5625 -62.609375 91.585938 -62.609375 92.640625 -62.609375 C 93.691406 -62.609375 94.769531 -62.609375 95.875 -62.609375 Z M 95.875 -62.609375 "/></g></g></g><g fill="#ffffff" fill-opacity="1"><g transform="translate(357.664814, 133.668508)"><g><path d="M 154.875 -105.359375 L 82.78125 -59.15625 L 156.6875 0 L 125.53125 0 L 65.46875 -48.015625 L 28.453125 -24.234375 L 28.453125 0 L 9.03125 0 L 9.03125 -105.359375 L 28.453125 -105.359375 L 28.453125 -47.265625 L 118.90625 -105.359375 Z M 154.875 -105.359375 "/></g></g></g></g></g></g><g clip-path="url(#04d236c0cf)"><g transform="matrix(1, 0, 0, 1, 492, -0.000000000000056843)"><g clip-path="url(#9842184b8e)"><g fill="#ffffff" fill-opacity="1"><g transform="translate(0.477163, 133.668508)"><g><path d="M 130.5 -61.71875 C 137.625 -58.90625 142.96875 -55.816406 146.53125 -52.453125 C 150.09375 -49.085938 152.445312 -45.847656 153.59375 -42.734375 C 154.75 -39.628906 155.328125 -37.023438 155.328125 -34.921875 C 155.328125 -32.710938 154.75 -30.050781 153.59375 -26.9375 C 152.445312 -23.832031 150.09375 -20.597656 146.53125 -17.234375 C 142.96875 -13.867188 137.625 -10.785156 130.5 -7.984375 C 123.976562 -5.472656 116.550781 -3.515625 108.21875 -2.109375 C 99.894531 -0.703125 91.21875 0 82.1875 0 C 73.15625 0 64.472656 -0.703125 56.140625 -2.109375 C 47.816406 -3.515625 40.390625 -5.472656 33.859375 -7.984375 C 26.640625 -10.785156 21.273438 -13.867188 17.765625 -17.234375 C 14.253906 -20.597656 11.921875 -23.832031 10.765625 -26.9375 C 9.609375 -30.050781 9.03125 -32.710938 9.03125 -34.921875 C 9.03125 -37.023438 9.609375 -39.628906 10.765625 -42.734375 C 11.921875 -45.847656 14.253906 -49.085938 17.765625 -52.453125 C 21.273438 -55.816406 26.640625 -58.90625 33.859375 -61.71875 C 34.367188 -61.914062 35.023438 -62.164062 35.828125 -62.46875 C 33.316406 -64.46875 31.332031 -66.75 29.875 -69.3125 C 28.414062 -71.875 27.6875 -74.660156 27.6875 -77.671875 C 27.6875 -82.378906 29.265625 -86.460938 32.421875 -89.921875 C 35.585938 -93.390625 39.804688 -96.253906 45.078125 -98.515625 C 50.347656 -100.773438 56.21875 -102.453125 62.6875 -103.546875 C 69.15625 -104.648438 75.65625 -105.203125 82.1875 -105.203125 C 88.707031 -105.203125 95.175781 -104.648438 101.59375 -103.546875 C 108.019531 -102.453125 113.863281 -100.773438 119.125 -98.515625 C 124.394531 -96.253906 128.609375 -93.390625 131.765625 -89.921875 C 134.929688 -86.460938 136.515625 -82.378906 136.515625 -77.671875 C 136.515625 -74.554688 135.8125 -71.742188 134.40625 -69.234375 C 133 -66.722656 131.046875 -64.46875 128.546875 -62.46875 C 129.347656 -62.164062 130 -61.914062 130.5 -61.71875 Z M 82.1875 -85.1875 C 73.050781 -85.1875 65.625 -84.28125 59.90625 -82.46875 C 54.1875 -80.664062 50.421875 -79.066406 48.609375 -77.671875 C 50.421875 -76.265625 54.1875 -74.679688 59.90625 -72.921875 C 65.625 -71.171875 73.050781 -70.296875 82.1875 -70.296875 C 91.3125 -70.296875 98.707031 -71.171875 104.375 -72.921875 C 110.050781 -74.679688 113.84375 -76.265625 115.75 -77.671875 C 113.84375 -79.066406 110.050781 -80.664062 104.375 -82.46875 C 98.707031 -84.28125 91.3125 -85.1875 82.1875 -85.1875 Z M 122.375 -26.34375 C 127.59375 -28.34375 131.023438 -30.171875 132.671875 -31.828125 C 134.328125 -33.484375 135.207031 -34.515625 135.3125 -34.921875 C 135.207031 -35.222656 134.328125 -36.222656 132.671875 -37.921875 C 131.023438 -39.628906 127.59375 -41.4375 122.375 -43.34375 C 117.050781 -45.351562 110.925781 -46.910156 104 -48.015625 C 97.082031 -49.117188 89.8125 -49.671875 82.1875 -49.671875 C 74.5625 -49.671875 67.285156 -49.117188 60.359375 -48.015625 C 53.429688 -46.910156 47.257812 -45.351562 41.84375 -43.34375 C 36.726562 -41.4375 33.316406 -39.628906 31.609375 -37.921875 C 29.898438 -36.222656 29.046875 -35.222656 29.046875 -34.921875 C 29.046875 -34.617188 29.898438 -33.613281 31.609375 -31.90625 C 33.316406 -30.195312 36.726562 -28.34375 41.84375 -26.34375 C 47.257812 -24.332031 53.429688 -22.773438 60.359375 -21.671875 C 67.285156 -20.566406 74.5625 -20.015625 82.1875 -20.015625 C 89.8125 -20.015625 97.082031 -20.566406 104 -21.671875 C 110.925781 -22.773438 117.050781 -24.332031 122.375 -26.34375 Z M 122.375 -26.34375 "/></g></g></g></g></g></g></g></g></svg>