<svg xmlns="http://www.w3.org/2000/svg" viewBox="0 0 512 512">
  <rect width="512" height="512" fill="#000"/>
  <!-- Big stylized 8 -->
  <g transform="translate(256, 200) scale(2.35) translate(-92.8, 59.4)" fill="#fff">
    <path d="M 147.390625 -69.703125 C 155.429688 -66.523438 161.460938 -63.035156 165.484375 -59.234375 C 169.515625 -55.441406 172.179688 -51.789062 173.484375 -48.28125 C 174.785156 -44.769531 175.4375 -41.820312 175.4375 -39.4375 C 175.4375 -36.945312 174.785156 -33.941406 173.484375 -30.421875 C 172.179688 -26.910156 169.515625 -23.253906 165.484375 -19.453125 C 161.460938 -15.660156 155.429688 -12.179688 147.390625 -9.015625 C 140.023438 -6.179688 131.640625 -3.96875 122.234375 -2.375 C 112.828125 -0.789062 103.019531 0 92.8125 0 C 82.613281 0 72.8125 -0.789062 63.40625 -2.375 C 54 -3.96875 45.613281 -6.179688 38.25 -9.015625 C 30.09375 -12.179688 24.03125 -15.660156 20.0625 -19.453125 C 16.09375 -23.253906 13.457031 -26.910156 12.15625 -30.421875 C 10.851562 -33.941406 10.203125 -36.945312 10.203125 -39.4375 C 10.203125 -41.820312 10.851562 -44.769531 12.15625 -48.28125 C 13.457031 -51.789062 16.09375 -55.441406 20.0625 -59.234375 C 24.03125 -63.035156 30.09375 -66.523438 38.25 -69.703125 C 38.8125 -69.929688 39.546875 -70.210938 40.453125 -70.546875 C 37.617188 -72.816406 35.378906 -75.394531 33.734375 -78.28125 C 32.097656 -81.175781 31.28125 -84.320312 31.28125 -87.71875 C 31.28125 -93.039062 33.0625 -97.65625 36.625 -101.5625 C 40.195312 -105.476562 44.957031 -108.710938 50.90625 -111.265625 C 56.863281 -113.816406 63.492188 -115.710938 70.796875 -116.953125 C 78.109375 -118.203125 85.445312 -118.828125 92.8125 -118.828125 C 100.1875 -118.828125 107.5 -118.203125 114.75 -116.953125 C 122 -115.710938 128.597656 -113.816406 134.546875 -111.265625 C 140.503906 -108.710938 145.265625 -105.476562 148.828125 -101.5625 C 152.398438 -97.65625 154.1875 -93.039062 154.1875 -87.71875 C 154.1875 -84.207031 153.394531 -81.035156 151.8125 -78.203125 C 150.226562 -75.367188 148.019531 -72.816406 145.1875 -70.546875 C 146.09375 -70.210938 146.828125 -69.929688 147.390625 -69.703125 Z M 92.8125 -96.21875 C 82.5 -96.21875 74.113281 -95.195312 67.65625 -93.15625 C 61.195312 -91.113281 56.945312 -89.300781 54.90625 -87.71875 C 56.945312 -86.132812 61.195312 -84.347656 67.65625 -82.359375 C 74.113281 -80.378906 82.5 -79.390625 92.8125 -79.390625 C 103.132812 -79.390625 111.492188 -80.378906 117.890625 -82.359375 C 124.296875 -84.347656 128.578125 -86.132812 130.734375 -87.71875 C 128.578125 -89.300781 124.296875 -91.113281 117.890625 -93.15625 C 111.492188 -95.195312 103.132812 -96.21875 92.8125 -96.21875 Z M 138.203125 -29.75 C 144.097656 -32.019531 147.976562 -34.085938 149.84375 -35.953125 C 151.71875 -37.828125 152.710938 -38.988281 152.828125 -39.4375 C 152.710938 -39.78125 151.71875 -40.914062 149.84375 -42.84375 C 147.976562 -44.769531 144.097656 -46.804688 138.203125 -48.953125 C 132.203125 -51.222656 125.289062 -52.976562 117.46875 -54.21875 C 109.644531 -55.46875 101.425781 -56.09375 92.8125 -56.09375 C 84.207031 -56.09375 75.992188 -55.46875 68.171875 -54.21875 C 60.347656 -52.976562 53.378906 -51.222656 47.265625 -48.953125 C 41.484375 -46.804688 37.628906 -44.769531 35.703125 -42.84375 C 33.773438 -40.914062 32.8125 -39.78125 32.8125 -39.4375 C 32.8125 -39.101562 33.773438 -37.972656 35.703125 -36.046875 C 37.628906 -34.117188 41.484375 -32.019531 47.265625 -29.75 C 53.378906 -27.476562 60.347656 -25.71875 68.171875 -24.46875 C 75.992188 -23.226562 84.207031 -22.609375 92.8125 -22.609375 C 101.425781 -22.609375 109.644531 -23.226562 117.46875 -24.46875 C 125.289062 -25.71875 132.203125 -27.476562 138.203125 -29.75 Z"/>
  </g>
  <!-- BISK8 text below -->
  <g transform="translate(256, 415) scale(0.5) translate(-366.7, 59.4)" fill="#fff">
    <path d="M 125.125 -75.140625 C 134.75 -73.890625 142.476562 -71.875 148.3125 -69.09375 C 154.15625 -66.320312 158.609375 -63.179688 161.671875 -59.671875 C 164.734375 -56.160156 166.828125 -52.585938 167.953125 -48.953125 C 169.085938 -45.328125 169.65625 -41.988281 169.65625 -38.9375 C 169.65625 -30.769531 166.597656 -23.6875 160.484375 -17.6875 C 157.078125 -14.394531 153.019531 -11.671875 148.3125 -9.515625 C 143.613281 -7.367188 138.6875 -5.640625 133.53125 -4.328125 C 128.375 -3.023438 123.332031 -2.0625 118.40625 -1.4375 C 113.476562 -0.820312 109.054688 -0.425781 105.140625 -0.25 C 101.234375 -0.0820312 98.257812 0 96.21875 0 L 10.203125 0 L 10.203125 -118.828125 L 63.0625 -118.828125 C 67.257812 -118.828125 72.132812 -118.710938 77.6875 -118.484375 C 83.238281 -118.265625 88.90625 -117.703125 94.6875 -116.796875 C 100.46875 -115.890625 105.820312 -114.328125 110.75 -112.109375 C 115.6875 -109.898438 119.679688 -106.785156 122.734375 -102.765625 C 125.796875 -98.742188 127.328125 -93.613281 127.328125 -87.375 C 127.328125 -82.726562 126.59375 -78.648438 125.125 -75.140625 Z M 32.125 -96.90625 L 32.125 -76.328125 L 58.65625 -76.328125 C 68.0625 -76.328125 75.707031 -76.523438 81.59375 -76.921875 C 87.488281 -77.316406 92.078125 -77.882812 95.359375 -78.625 C 98.648438 -79.363281 101.003906 -80.1875 102.421875 -81.09375 C 103.835938 -82 104.6875 -82.988281 104.96875 -84.0625 C 105.257812 -85.144531 105.40625 -86.25 105.40625 -87.375 C 105.40625 -88.851562 104.296875 -90.328125 102.078125 -91.796875 C 99.867188 -93.273438 95.734375 -94.492188 89.671875 -95.453125 C 83.609375 -96.421875 74.738281 -96.90625 63.0625 -96.90625 Z M 143.484375 -33.3125 C 144.617188 -34.445312 145.328125 -35.46875 145.609375 -36.375 C 145.890625 -37.28125 146.03125 -38.132812 146.03125 -38.9375 C 146.03125 -42.675781 144.070312 -45.675781 140.15625 -47.9375 C 136.25 -50.207031 131.175781 -51.851562 124.9375 -52.875 C 118.707031 -53.894531 112.195312 -54.40625 105.40625 -54.40625 L 32.125 -54.40625 L 32.125 -21.9375 L 94.1875 -21.9375 C 97.925781 -21.820312 102.171875 -21.929688 106.921875 -22.265625 C 111.679688 -22.609375 116.414062 -23.234375 121.125 -24.140625 C 125.832031 -25.046875 130.164062 -26.265625 134.125 -27.796875 C 138.09375 -29.328125 141.210938 -31.164062 143.484375 -33.3125 Z"/>
    <g transform="translate(180.615, 0)"><path d="M 32.125 0 L 10.203125 0 L 10.203125 -119 L 32.125 -119 Z"/></g>
    <g transform="translate(222.946, 0)"><path d="M 108.296875 -70.71875 C 112.828125 -70.71875 117.925781 -70.578125 123.59375 -70.296875 C 129.257812 -70.015625 134.984375 -69.332031 140.765625 -68.25 C 146.546875 -67.175781 151.867188 -65.390625 156.734375 -62.890625 C 161.609375 -60.398438 165.519531 -56.945312 168.46875 -52.53125 C 171.414062 -48.113281 172.890625 -42.445312 172.890625 -35.53125 C 172.890625 -29.632812 171.640625 -24.644531 169.140625 -20.5625 C 166.648438 -16.488281 163.28125 -13.144531 159.03125 -10.53125 C 154.78125 -7.925781 150.078125 -5.882812 144.921875 -4.40625 C 139.765625 -2.9375 134.46875 -1.890625 129.03125 -1.265625 C 123.59375 -0.648438 118.40625 -0.285156 113.46875 -0.171875 C 108.539062 -0.0546875 104.265625 0 100.640625 0 C 90.210938 0 81.144531 -0.28125 73.4375 -0.84375 C 65.726562 -1.414062 58.984375 -2.296875 53.203125 -3.484375 C 47.429688 -4.671875 42.21875 -6.285156 37.5625 -8.328125 C 29.863281 -11.503906 23.742188 -15.242188 19.203125 -19.546875 C 14.671875 -23.859375 12.007812 -30.035156 11.21875 -38.078125 L 33.3125 -38.078125 C 33.65625 -36.492188 34.675781 -34.992188 36.375 -33.578125 C 38.082031 -32.160156 41.367188 -30.429688 46.234375 -28.390625 C 51.679688 -26.003906 58.65625 -24.300781 67.15625 -23.28125 C 75.65625 -22.269531 86.816406 -21.765625 100.640625 -21.765625 C 111.066406 -21.765625 119.566406 -22.1875 126.140625 -23.03125 C 132.710938 -23.882812 137.8125 -24.988281 141.4375 -26.34375 C 145.0625 -27.707031 147.550781 -29.179688 148.90625 -30.765625 C 150.269531 -32.359375 150.953125 -33.945312 150.953125 -35.53125 C 150.953125 -40.96875 147.210938 -44.507812 139.734375 -46.15625 C 132.253906 -47.800781 121.71875 -48.679688 108.125 -48.796875 C 106.757812 -48.796875 105.453125 -48.796875 104.203125 -48.796875 C 102.960938 -48.796875 101.773438 -48.847656 100.640625 -48.953125 C 99.171875 -48.953125 97.554688 -48.953125 95.796875 -48.953125 C 94.035156 -48.953125 92.191406 -48.953125 90.265625 -48.953125 C 80.296875 -48.847656 70.71875 -49.046875 61.53125 -49.546875 C 52.351562 -50.054688 44.023438 -51.359375 36.546875 -53.453125 C 29.066406 -55.554688 23.003906 -58.929688 18.359375 -63.578125 C 12.921875 -68.898438 10.203125 -75.414062 10.203125 -83.125 C 10.203125 -91.289062 12.550781 -97.78125 17.25 -102.59375 C 21.957031 -107.40625 28.414062 -110.945312 36.625 -113.21875 C 44.84375 -115.488281 54.363281 -116.960938 65.1875 -117.640625 C 76.019531 -118.316406 87.554688 -118.65625 99.796875 -118.65625 C 132.546875 -118.65625 154.359375 -112.140625 165.234375 -99.109375 C 167.847656 -95.929688 169.578125 -92.84375 170.421875 -89.84375 C 171.273438 -86.84375 171.757812 -84.320312 171.875 -82.28125 L 149.765625 -82.28125 C 149.648438 -82.625 149.453125 -83.101562 149.171875 -83.71875 C 148.890625 -84.34375 148.410156 -85.050781 147.734375 -85.84375 C 146.597656 -86.863281 144.441406 -88.253906 141.265625 -90.015625 C 138.097656 -91.773438 133.195312 -93.332031 126.5625 -94.6875 C 119.9375 -96.050781 111.015625 -96.734375 99.796875 -96.734375 C 86.191406 -96.734375 75.140625 -96.421875 66.640625 -95.796875 C 58.140625 -95.171875 51.507812 -94.316406 46.75 -93.234375 C 41.988281 -92.160156 38.554688 -91 36.453125 -89.75 C 34.359375 -88.507812 33.113281 -87.289062 32.71875 -86.09375 C 32.320312 -84.90625 32.125 -83.914062 32.125 -83.125 C 32.125 -81.539062 32.632812 -80.179688 33.65625 -79.046875 C 35.925781 -76.890625 39.382812 -75.242188 44.03125 -74.109375 C 48.675781 -72.984375 53.800781 -72.164062 59.40625 -71.65625 C 65.019531 -71.144531 70.570312 -70.859375 76.0625 -70.796875 C 81.5625 -70.742188 86.238281 -70.71875 90.09375 -70.71875 C 92.25 -70.832031 94.257812 -70.890625 96.125 -70.890625 C 98 -70.890625 99.675781 -70.832031 101.15625 -70.71875 C 102.28125 -70.71875 103.4375 -70.71875 104.625 -70.71875 C 105.820312 -70.71875 107.046875 -70.71875 108.296875 -70.71875 Z"/></g>
    <g transform="translate(403.151, 0)"><path d="M 174.9375 -119 L 93.5 -66.8125 L 176.96875 0 L 141.78125 0 L 73.953125 -54.234375 L 32.125 -27.375 L 32.125 0 L 10.203125 0 L 10.203125 -119 L 32.125 -119 L 32.125 -53.375 L 134.296875 -119 Z"/></g>
    <g transform="translate(557.992, 0)"><path d="M 147.390625 -69.703125 C 155.429688 -66.523438 161.460938 -63.035156 165.484375 -59.234375 C 169.515625 -55.441406 172.179688 -51.789062 173.484375 -48.28125 C 174.785156 -44.769531 175.4375 -41.820312 175.4375 -39.4375 C 175.4375 -36.945312 174.785156 -33.941406 173.484375 -30.421875 C 172.179688 -26.910156 169.515625 -23.253906 165.484375 -19.453125 C 161.460938 -15.660156 155.429688 -12.179688 147.390625 -9.015625 C 140.023438 -6.179688 131.640625 -3.96875 122.234375 -2.375 C 112.828125 -0.789062 103.019531 0 92.8125 0 C 82.613281 0 72.8125 -0.789062 63.40625 -2.375 C 54 -3.96875 45.613281 -6.179688 38.25 -9.015625 C 30.09375 -12.179688 24.03125 -15.660156 20.0625 -19.453125 C 16.09375 -23.253906 13.457031 -26.910156 12.15625 -30.421875 C 10.851562 -33.941406 10.203125 -36.945312 10.203125 -39.4375 C 10.203125 -41.820312 10.851562 -44.769531 12.15625 -48.28125 C 13.457031 -51.789062 16.09375 -55.441406 20.0625 -59.234375 C 24.03125 -63.035156 30.09375 -66.523438 38.25 -69.703125 C 38.8125 -69.929688 39.546875 -70.210938 40.453125 -70.546875 C 37.617188 -72.816406 35.378906 -75.394531 33.734375 -78.28125 C 32.097656 -81.175781 31.28125 -84.320312 31.28125 -87.71875 C 31.28125 -93.039062 33.0625 -97.65625 36.625 -101.5625 C 40.195312 -105.476562 44.957031 -108.710938 50.90625 -111.265625 C 56.863281 -113.816406 63.492188 -115.710938 70.796875 -116.953125 C 78.109375 -118.203125 85.445312 -118.828125 92.8125 -118.828125 C 100.1875 -118.828125 107.5 -118.203125 114.75 -116.953125 C 122 -115.710938 128.597656 -113.816406 134.546875 -111.265625 C 140.503906 -108.710938 145.265625 -105.476562 148.828125 -101.5625 C 152.398438 -97.65625 154.1875 -93.039062 154.1875 -87.71875 C 154.1875 -84.207031 153.394531 -81.035156 151.8125 -78.203125 C 150.226562 -75.367188 148.019531 -72.816406 145.1875 -70.546875 C 146.09375 -70.210938 146.828125 -69.929688 147.390625 -69.703125 Z M 92.8125 -96.21875 C 82.5 -96.21875 74.113281 -95.195312 67.65625 -93.15625 C 61.195312 -91.113281 56.945312 -89.300781 54.90625 -87.71875 C 56.945312 -86.132812 61.195312 -84.347656 67.65625 -82.359375 C 74.113281 -80.378906 82.5 -79.390625 92.8125 -79.390625 C 103.132812 -79.390625 111.492188 -80.378906 117.890625 -82.359375 C 124.296875 -84.347656 128.578125 -86.132812 130.734375 -87.71875 C 128.578125 -89.300781 124.296875 -91.113281 117.890625 -93.15625 C 111.492188 -95.195312 103.132812 -96.21875 92.8125 -96.21875 Z M 138.203125 -29.75 C 144.097656 -32.019531 147.976562 -34.085938 149.84375 -35.953125 C 151.71875 -37.828125 152.710938 -38.988281 152.828125 -39.4375 C 152.710938 -39.78125 151.71875 -40.914062 149.84375 -42.84375 C 147.976562 -44.769531 144.097656 -46.804688 138.203125 -48.953125 C 132.203125 -51.222656 125.289062 -52.976562 117.46875 -54.21875 C 109.644531 -55.46875 101.425781 -56.09375 92.8125 -56.09375 C 84.207031 -56.09375 75.992188 -55.46875 68.171875 -54.21875 C 60.347656 -52.976562 53.378906 -51.222656 47.265625 -48.953125 C 41.484375 -46.804688 37.628906 -44.769531 35.703125 -42.84375 C 33.773438 -40.914062 32.8125 -39.78125 32.8125 -39.4375 C 32.8125 -39.101562 33.773438 -37.972656 35.703125 -36.046875 C 37.628906 -34.117188 41.484375 -32.019531 47.265625 -29.75 C 53.378906 -27.476562 60.347656 -25.71875 68.171875 -24.46875 C 75.992188 -23.226562 84.207031 -22.609375 92.8125 -22.609375 C 101.425781 -22.609375 109.644531 -23.226562 117.46875 -24.46875 C 125.289062 -25.71875 132.203125 -27.476562 138.203125 -29.75 Z"/></g>
  </g>
</svg>